<svg width="26" height="25" viewBox="0 0 26 25" fill="none" xmlns="http://www.w3.org/2000/svg">
<path d="M2.73145 10.5181C3.70424 -2.07355 21.9147 -2.19273 23.3223 10.0151L23.376 10.606L23.7148 15.5464C24.2143 16.4441 24.5156 17.5992 24.5156 18.8599C24.5155 21.7178 22.9707 24.0347 21.0654 24.0347C19.1603 24.0344 17.6163 21.7176 17.6162 18.8599C17.6162 16.0019 19.1602 13.6853 21.0654 13.6851C21.1382 13.6851 21.2106 13.6882 21.2822 13.6948L21.0811 10.7642L21.0391 10.3042C19.9444 0.809194 5.78138 0.901765 5.02441 10.6948L4.79199 13.6899C4.84948 13.6857 4.90763 13.6851 4.96582 13.6851C6.87109 13.6852 8.41602 16.0019 8.41602 18.8599C8.4159 21.7177 6.87102 24.0345 4.96582 24.0347C3.06052 24.0347 1.51574 21.7178 1.51562 18.8599C1.51562 17.574 1.82915 16.3978 2.34668 15.4927L2.73145 10.5181Z" fill="#50B95D"/>
</svg>
