<svg width="26" height="25" viewBox="0 0 26 25" fill="none" xmlns="http://www.w3.org/2000/svg">
<path d="M13.2346 1.94434C19.0642 1.94434 23.7902 6.67033 23.7902 12.5L23.7766 13.043C23.4939 18.6203 18.8821 23.0557 13.2346 23.0557V20.9443C17.7526 20.9443 21.442 17.3963 21.6682 12.9346L21.6789 12.5C21.6789 7.83626 17.8983 4.05566 13.2346 4.05566C9.6912 4.05581 6.65933 6.23896 5.40644 9.33301H7.93965C8.36521 9.33323 8.61552 9.81118 8.37324 10.1611L4.63594 15.5596C4.42465 15.8647 3.97274 15.8621 3.76484 15.5547L0.122265 10.1641C-0.113717 9.81407 0.136544 9.34184 0.558788 9.34082L3.1623 9.33496C4.50688 5.05174 8.50775 1.94449 13.2346 1.94434Z" fill="#50B95D"/>
</svg>
